<?xml version="1.0" encoding="UTF-8"?>
<svg xmlns="http://www.w3.org/2000/svg" xmlns:xlink="http://www.w3.org/1999/xlink" width="675pt" height="599.999999pt" viewBox="0 0 675 599.999999" version="1.2">
<defs>
<clipPath id="clip1">
  <path d="M 84.375 93 L 590.625 93 L 590.625 599.835938 L 84.375 599.835938 Z M 84.375 93 "/>
</clipPath>
<clipPath id="clip2">
  <path d="M 157.160156 333.117188 L 213.769531 333.117188 L 213.769531 409.945312 L 157.160156 409.945312 Z M 157.160156 333.117188 "/>
</clipPath>
<clipPath id="clip3">
  <path d="M 84.355469 346.699219 C 84.355469 486.503906 197.6875 599.835938 337.492188 599.835938 C 477.292969 599.835938 590.625 486.503906 590.625 346.699219 C 590.625 206.898438 477.292969 93.566406 337.492188 93.566406 C 197.6875 93.566406 84.355469 206.898438 84.355469 346.699219 Z M 84.355469 346.699219 "/>
</clipPath>
<clipPath id="clip4">
  <path d="M 127.238281 236.070312 L 274.421875 236.070312 L 274.421875 460.890625 L 127.238281 460.890625 Z M 127.238281 236.070312 "/>
</clipPath>
<clipPath id="clip5">
  <path d="M 84.355469 346.699219 C 84.355469 486.503906 197.6875 599.835938 337.492188 599.835938 C 477.292969 599.835938 590.625 486.503906 590.625 346.699219 C 590.625 206.898438 477.292969 93.566406 337.492188 93.566406 C 197.6875 93.566406 84.355469 206.898438 84.355469 346.699219 Z M 84.355469 346.699219 "/>
</clipPath>
<clipPath id="clip6">
  <path d="M 121 256.289062 L 204.871094 256.289062 L 204.871094 463 L 121 463 Z M 121 256.289062 "/>
</clipPath>
<clipPath id="clip7">
  <path d="M 84.355469 346.699219 C 84.355469 486.503906 197.6875 599.835938 337.492188 599.835938 C 477.292969 599.835938 590.625 486.503906 590.625 346.699219 C 590.625 206.898438 477.292969 93.566406 337.492188 93.566406 C 197.6875 93.566406 84.355469 206.898438 84.355469 346.699219 Z M 84.355469 346.699219 "/>
</clipPath>
<clipPath id="clip8">
  <path d="M 145.027344 362.230469 L 177.375 362.230469 L 177.375 380 L 145.027344 380 Z M 145.027344 362.230469 "/>
</clipPath>
<clipPath id="clip9">
  <path d="M 84.355469 346.699219 C 84.355469 486.503906 197.6875 599.835938 337.492188 599.835938 C 477.292969 599.835938 590.625 486.503906 590.625 346.699219 C 590.625 206.898438 477.292969 93.566406 337.492188 93.566406 C 197.6875 93.566406 84.355469 206.898438 84.355469 346.699219 Z M 84.355469 346.699219 "/>
</clipPath>
<clipPath id="clip10">
  <path d="M 143.410156 353.335938 L 174 353.335938 L 174 368.699219 L 143.410156 368.699219 Z M 143.410156 353.335938 "/>
</clipPath>
<clipPath id="clip11">
  <path d="M 84.355469 346.699219 C 84.355469 486.503906 197.6875 599.835938 337.492188 599.835938 C 477.292969 599.835938 590.625 486.503906 590.625 346.699219 C 590.625 206.898438 477.292969 93.566406 337.492188 93.566406 C 197.6875 93.566406 84.355469 206.898438 84.355469 346.699219 Z M 84.355469 346.699219 "/>
</clipPath>
<clipPath id="clip12">
  <path d="M 146.644531 374 L 178.992188 374 L 178.992188 392.960938 L 146.644531 392.960938 Z M 146.644531 374 "/>
</clipPath>
<clipPath id="clip13">
  <path d="M 84.355469 346.699219 C 84.355469 486.503906 197.6875 599.835938 337.492188 599.835938 C 477.292969 599.835938 590.625 486.503906 590.625 346.699219 C 590.625 206.898438 477.292969 93.566406 337.492188 93.566406 C 197.6875 93.566406 84.355469 206.898438 84.355469 346.699219 Z M 84.355469 346.699219 "/>
</clipPath>
<clipPath id="clip14">
  <path d="M 153.113281 386 L 180.609375 386 L 180.609375 401 L 153.113281 401 Z M 153.113281 386 "/>
</clipPath>
<clipPath id="clip15">
  <path d="M 84.355469 346.699219 C 84.355469 486.503906 197.6875 599.835938 337.492188 599.835938 C 477.292969 599.835938 590.625 486.503906 590.625 346.699219 C 590.625 206.898438 477.292969 93.566406 337.492188 93.566406 C 197.6875 93.566406 84.355469 206.898438 84.355469 346.699219 Z M 84.355469 346.699219 "/>
</clipPath>
<clipPath id="clip16">
  <path d="M 317 113.148438 L 388.449219 113.148438 L 388.449219 194 L 317 194 Z M 317 113.148438 "/>
</clipPath>
<clipPath id="clip17">
  <path d="M 84.355469 346.699219 C 84.355469 486.503906 197.6875 599.835938 337.492188 599.835938 C 477.292969 599.835938 590.625 486.503906 590.625 346.699219 C 590.625 206.898438 477.292969 93.566406 337.492188 93.566406 C 197.6875 93.566406 84.355469 206.898438 84.355469 346.699219 Z M 84.355469 346.699219 "/>
</clipPath>
<clipPath id="clip18">
  <path d="M 204.0625 454.421875 L 334.265625 454.421875 L 334.265625 599.835938 L 204.0625 599.835938 Z M 204.0625 454.421875 "/>
</clipPath>
<clipPath id="clip19">
  <path d="M 84.355469 346.699219 C 84.355469 486.503906 197.6875 599.835938 337.492188 599.835938 C 477.292969 599.835938 590.625 486.503906 590.625 346.699219 C 590.625 206.898438 477.292969 93.566406 337.492188 93.566406 C 197.6875 93.566406 84.355469 206.898438 84.355469 346.699219 Z M 84.355469 346.699219 "/>
</clipPath>
<clipPath id="clip20">
  <path d="M 240.457031 397.003906 L 437.78125 397.003906 L 437.78125 599.835938 L 240.457031 599.835938 Z M 240.457031 397.003906 "/>
</clipPath>
<clipPath id="clip21">
  <path d="M 84.355469 346.699219 C 84.355469 486.503906 197.6875 599.835938 337.492188 599.835938 C 477.292969 599.835938 590.625 486.503906 590.625 346.699219 C 590.625 206.898438 477.292969 93.566406 337.492188 93.566406 C 197.6875 93.566406 84.355469 206.898438 84.355469 346.699219 Z M 84.355469 346.699219 "/>
</clipPath>
<clipPath id="clip22">
  <path d="M 213 143.070312 L 484.683594 143.070312 L 484.683594 484.34375 L 213 484.34375 Z M 213 143.070312 "/>
</clipPath>
<clipPath id="clip23">
  <path d="M 84.355469 346.699219 C 84.355469 486.503906 197.6875 599.835938 337.492188 599.835938 C 477.292969 599.835938 590.625 486.503906 590.625 346.699219 C 590.625 206.898438 477.292969 93.566406 337.492188 93.566406 C 197.6875 93.566406 84.355469 206.898438 84.355469 346.699219 Z M 84.355469 346.699219 "/>
</clipPath>
<clipPath id="clip24">
  <path d="M 373.082031 314 L 505.710938 314 L 505.710938 544.1875 L 373.082031 544.1875 Z M 373.082031 314 "/>
</clipPath>
<clipPath id="clip25">
  <path d="M 84.355469 346.699219 C 84.355469 486.503906 197.6875 599.835938 337.492188 599.835938 C 477.292969 599.835938 590.625 486.503906 590.625 346.699219 C 590.625 206.898438 477.292969 93.566406 337.492188 93.566406 C 197.6875 93.566406 84.355469 206.898438 84.355469 346.699219 Z M 84.355469 346.699219 "/>
</clipPath>
<clipPath id="clip26">
  <path d="M 438 205 L 516 205 L 516 337 L 438 337 Z M 438 205 "/>
</clipPath>
<clipPath id="clip27">
  <path d="M 84.355469 346.699219 C 84.355469 486.503906 197.6875 599.835938 337.492188 599.835938 C 477.292969 599.835938 590.625 486.503906 590.625 346.699219 C 590.625 206.898438 477.292969 93.566406 337.492188 93.566406 C 197.6875 93.566406 84.355469 206.898438 84.355469 346.699219 Z M 84.355469 346.699219 "/>
</clipPath>
<clipPath id="clip28">
  <path d="M 362 235.261719 L 415 235.261719 L 415 263.566406 L 362 263.566406 Z M 362 235.261719 "/>
</clipPath>
<clipPath id="clip29">
  <path d="M 84.355469 346.699219 C 84.355469 486.503906 197.6875 599.835938 337.492188 599.835938 C 477.292969 599.835938 590.625 486.503906 590.625 346.699219 C 590.625 206.898438 477.292969 93.566406 337.492188 93.566406 C 197.6875 93.566406 84.355469 206.898438 84.355469 346.699219 Z M 84.355469 346.699219 "/>
</clipPath>
</defs>
<g id="surface1">
<g clip-path="url(#clip1)" clip-rule="nonzero">
<path style=" stroke:none;fill-rule:nonzero;fill:rgb(86.669922%,93.728638%,98.429871%);fill-opacity:1;" d="M 84.355469 346.699219 C 84.355469 486.503906 197.6875 599.835938 337.492188 599.835938 C 477.292969 599.835938 590.625 486.503906 590.625 346.699219 C 590.625 206.898438 477.292969 93.566406 337.492188 93.566406 C 197.6875 93.566406 84.355469 206.898438 84.355469 346.699219 "/>
</g>
<g clip-path="url(#clip2)" clip-rule="nonzero">
<g clip-path="url(#clip3)" clip-rule="nonzero">
<path style=" stroke:none;fill-rule:nonzero;fill:rgb(55.288696%,18.03894%,16.468811%);fill-opacity:1;" d="M 175.390625 333.222656 C 175.390625 333.222656 165.695312 336.566406 170.621094 349.054688 C 171.410156 351.058594 176.679688 357.265625 176.679688 357.265625 L 162.511719 370.003906 L 157.425781 400.585938 L 177.421875 409.289062 L 196.5 409.496094 L 213.539062 383.042969 L 203.835938 361.09375 L 178.332031 342.074219 L 175.390625 333.222656 "/>
</g>
</g>
<g clip-path="url(#clip4)" clip-rule="nonzero">
<g clip-path="url(#clip5)" clip-rule="nonzero">
<path style=" stroke:none;fill-rule:nonzero;fill:rgb(100%,100%,100%);fill-opacity:1;" d="M 204.621094 460.574219 L 274.0625 420.484375 L 200.601562 236.804688 L 127.652344 256.816406 L 204.621094 460.574219 "/>
</g>
</g>
<g clip-path="url(#clip6)" clip-rule="nonzero">
<g clip-path="url(#clip7)" clip-rule="nonzero">
<path style=" stroke:none;fill-rule:nonzero;fill:rgb(96.469116%,96.859741%,97.648621%);fill-opacity:1;" d="M 198.230469 462.988281 L 204.621094 460.574219 L 127.652344 256.816406 L 121.265625 259.230469 L 198.230469 462.988281 "/>
</g>
</g>
<g clip-path="url(#clip8)" clip-rule="nonzero">
<g clip-path="url(#clip9)" clip-rule="nonzero">
<path style=" stroke:none;fill-rule:nonzero;fill:rgb(55.288696%,18.03894%,16.468811%);fill-opacity:1;" d="M 145.539062 375.125 C 146.34375 378.339844 149.121094 380.40625 151.738281 379.753906 L 173.507812 374.269531 C 176.128906 373.609375 177.59375 370.476562 176.792969 367.265625 C 175.980469 364.058594 173.207031 361.992188 170.585938 362.648438 L 148.804688 368.125 C 146.195312 368.789062 144.730469 371.921875 145.539062 375.125 "/>
</g>
</g>
<g clip-path="url(#clip10)" clip-rule="nonzero">
<g clip-path="url(#clip11)" clip-rule="nonzero">
<path style=" stroke:none;fill-rule:nonzero;fill:rgb(55.288696%,18.03894%,16.468811%);fill-opacity:1;" d="M 143.574219 363.605469 C 144.113281 366.644531 146.566406 368.761719 149.042969 368.320312 L 169.710938 364.6875 C 172.191406 364.257812 173.773438 361.433594 173.234375 358.382812 C 172.699219 355.347656 170.242188 353.222656 167.761719 353.664062 L 147.101562 357.296875 C 144.625 357.734375 143.050781 360.554688 143.574219 363.605469 "/>
</g>
</g>
<g clip-path="url(#clip12)" clip-rule="nonzero">
<g clip-path="url(#clip13)" clip-rule="nonzero">
<path style=" stroke:none;fill-rule:nonzero;fill:rgb(55.288696%,18.03894%,16.468811%);fill-opacity:1;" d="M 146.984375 387.238281 C 147.867188 390.753906 150.714844 393.074219 153.332031 392.410156 L 175.109375 386.925781 C 177.710938 386.269531 179.125 382.894531 178.234375 379.375 C 177.355469 375.859375 174.503906 373.53125 171.890625 374.191406 L 150.125 379.675781 C 147.5 380.328125 146.105469 383.71875 146.984375 387.238281 "/>
</g>
</g>
<g clip-path="url(#clip14)" clip-rule="nonzero">
<g clip-path="url(#clip15)" clip-rule="nonzero">
<path style=" stroke:none;fill-rule:nonzero;fill:rgb(55.288696%,18.03894%,16.468811%);fill-opacity:1;" d="M 153.894531 396.71875 C 154.566406 399.40625 156.894531 401.125 159.09375 400.582031 L 177.320312 395.988281 C 179.515625 395.433594 180.742188 392.808594 180.0625 390.125 C 179.386719 387.4375 177.058594 385.710938 174.871094 386.261719 L 156.644531 390.847656 C 154.445312 391.394531 153.21875 394.023438 153.894531 396.71875 "/>
</g>
</g>
<g clip-path="url(#clip16)" clip-rule="nonzero">
<g clip-path="url(#clip17)" clip-rule="nonzero">
<path style=" stroke:none;fill-rule:nonzero;fill:rgb(47.839355%,13.328552%,13.328552%);fill-opacity:1;" d="M 386.808594 154.828125 L 317.027344 193.375 L 320.625 157.925781 L 323.347656 118.890625 L 388.046875 113.433594 L 386.808594 154.828125 "/>
</g>
</g>
<g clip-path="url(#clip18)" clip-rule="nonzero">
<g clip-path="url(#clip19)" clip-rule="nonzero">
<path style=" stroke:none;fill-rule:nonzero;fill:rgb(38.038635%,67.83905%,68.629456%);fill-opacity:1;" d="M 211.917969 593.203125 C 200.789062 520.417969 202.617188 498.542969 213.605469 455.332031 C 246.839844 445.8125 323 525.179688 323 525.179688 C 323 525.179688 330.289062 545.03125 334.089844 604.257812 L 211.917969 593.203125 "/>
</g>
</g>
<g clip-path="url(#clip20)" clip-rule="nonzero">
<g clip-path="url(#clip21)" clip-rule="nonzero">
<path style=" stroke:none;fill-rule:nonzero;fill:rgb(52.159119%,75.289917%,77.249146%);fill-opacity:1;" d="M 407.46875 596.789062 L 278.894531 609.875 C 280.414062 571.652344 283.652344 557.550781 290.273438 517.203125 C 259.992188 497.277344 240.21875 464.941406 240.851562 464.300781 C 244.566406 460.585938 412.085938 390.492188 416.785156 397.667969 C 440.351562 433.667969 440.660156 506.679688 431.664062 523.773438 L 407.46875 596.789062 "/>
</g>
</g>
<g clip-path="url(#clip22)" clip-rule="nonzero">
<g clip-path="url(#clip23)" clip-rule="nonzero">
<path style=" stroke:none;fill-rule:nonzero;fill:rgb(52.159119%,75.289917%,77.249146%);fill-opacity:1;" d="M 442.523438 293.992188 C 442.523438 293.992188 482.816406 217.953125 484.105469 205.007812 C 476.738281 180.691406 413.578125 144.582031 413.578125 144.582031 C 413.578125 144.582031 382.300781 141.65625 372.546875 144.828125 C 357.660156 149.667969 321.683594 181.339844 321.683594 181.339844 L 321.554688 144.566406 C 308.800781 144.699219 297.414062 145.359375 290.636719 147.539062 C 268.511719 154.636719 246.480469 187.726562 239.664062 206.433594 C 235.21875 218.664062 233.300781 273.703125 233.300781 273.703125 C 233.300781 273.703125 217.441406 436.351562 213.605469 455.332031 C 228.289062 466.027344 265.296875 479.535156 303.882812 483.441406 C 342.503906 487.019531 420.128906 477.863281 436.59375 470.1875 C 436.476562 450.820312 442.523438 293.992188 442.523438 293.992188 "/>
</g>
</g>
<g clip-path="url(#clip24)" clip-rule="nonzero">
<g clip-path="url(#clip25)" clip-rule="nonzero">
<path style=" stroke:none;fill-rule:nonzero;fill:rgb(55.288696%,18.03894%,16.468811%);fill-opacity:1;" d="M 503.570312 314.261719 C 509.535156 341.429688 502.480469 377.164062 488.9375 410.992188 C 472.171875 456.492188 395.105469 544.039062 395.105469 544.039062 L 373.304688 508.347656 L 427.011719 396.382812 L 438.339844 333.136719 C 438.339844 333.136719 496.601562 316.203125 503.570312 314.261719 "/>
</g>
</g>
<g clip-path="url(#clip26)" clip-rule="nonzero">
<g clip-path="url(#clip27)" clip-rule="nonzero">
<path style=" stroke:none;fill-rule:nonzero;fill:rgb(52.159119%,75.289917%,77.249146%);fill-opacity:1;" d="M 438.339844 301.882812 L 438.339844 333.136719 C 438.339844 333.136719 502.40625 344.160156 512.175781 326.828125 C 527.460938 299.699219 484.105469 205.007812 484.105469 205.007812 L 438.339844 301.882812 "/>
</g>
</g>
<g clip-path="url(#clip28)" clip-rule="nonzero">
<g clip-path="url(#clip29)" clip-rule="nonzero">
<path style=" stroke:none;fill-rule:nonzero;fill:rgb(100%,100%,100%);fill-opacity:1;" d="M 362.476562 263.53125 L 414.523438 263.53125 L 414.523438 235.621094 L 362.476562 235.621094 L 362.476562 263.53125 "/>
</g>
</g>
<path style=" stroke:none;fill-rule:nonzero;fill:rgb(55.288696%,18.03894%,16.468811%);fill-opacity:1;" d="M 386.964844 100.855469 C 390.304688 87.851562 399.996094 68.554688 397.570312 58.355469 C 394.765625 46.488281 383.421875 41.652344 373.414062 38.261719 C 363.402344 34.878906 351.457031 31.832031 342.015625 39.554688 C 333.914062 46.195312 329.890625 67.40625 324.632812 79.765625 C 317.917969 95.5625 319.21875 110.738281 323.863281 122.105469 C 326.363281 126.261719 330.023438 128.476562 334.585938 130.101562 C 338.878906 132.496094 358.5 131.949219 363.019531 130.179688 C 378.296875 124.148438 382.707031 117.492188 386.964844 100.855469 "/>
<path style=" stroke:none;fill-rule:nonzero;fill:rgb(26.269531%,12.548828%,4.708862%);fill-opacity:1;" d="M 422.832031 65.679688 C 428.828125 53.195312 413.644531 42.613281 410.757812 37.605469 C 400.261719 19.441406 380.75 24.136719 375.710938 19.523438 C 354.566406 0.183594 343.90625 14.445312 344.035156 18.574219 C 344.171875 22.480469 344.882812 22.570312 345.019531 24.632812 C 333.96875 24.777344 327.988281 28.800781 330.726562 31.695312 C 332.078125 33.128906 319.546875 47.960938 332.617188 56.554688 C 332.617188 56.554688 344.878906 39.703125 349.191406 39.6875 C 354.691406 36.964844 360.394531 44.515625 360.394531 44.515625 C 360.394531 44.515625 374.410156 49.359375 375.308594 50.171875 C 376.941406 51.664062 382.574219 49.855469 382.574219 49.855469 C 397.832031 63.117188 389.324219 92.136719 389.324219 92.136719 C 389.324219 92.136719 388.1875 113.195312 386.660156 133.417969 C 390.0625 127.886719 403.582031 115.507812 409.921875 107.164062 C 421.179688 92.296875 416.371094 79.109375 422.832031 65.679688 "/>
<path style=" stroke:none;fill-rule:nonzero;fill:rgb(55.288696%,18.03894%,16.468811%);fill-opacity:1;" d="M 389.324219 92.136719 C 405.21875 85.066406 395.886719 107.179688 391.507812 111.625 C 389.910156 113.265625 384.621094 114.644531 382.050781 114.273438 L 389.324219 92.136719 "/>
<path style=" stroke:none;fill-rule:nonzero;fill:rgb(100%,100%,100%);fill-opacity:1;" d="M 356.699219 101.300781 C 355.070312 105.726562 343.980469 111.753906 334.34375 108.214844 C 320.773438 103.21875 330.238281 99.460938 325.847656 89.953125 C 324.964844 88.050781 327.738281 92.859375 337.375 96.398438 C 347.011719 99.945312 357.53125 99.035156 356.699219 101.300781 "/>
<path style=" stroke:none;fill-rule:nonzero;fill:rgb(26.269531%,12.548828%,4.708862%);fill-opacity:1;" d="M 357.597656 67.347656 C 361.265625 64.65625 369.621094 67.03125 372.417969 70.039062 C 373.421875 71.117188 374.398438 71.542969 373.710938 73.457031 C 368.113281 68.167969 360.058594 70.734375 357.632812 67.679688 L 357.597656 67.347656 "/>
<path style=" stroke:none;fill-rule:nonzero;fill:rgb(26.269531%,12.548828%,4.708862%);fill-opacity:1;" d="M 346.394531 63.90625 C 346.140625 59.484375 339.640625 55.339844 335.933594 55.492188 C 334.605469 55.546875 333.742188 55.160156 332.808594 56.972656 C 339.730469 57.175781 342.613281 64.550781 346.140625 64.109375 L 346.394531 63.90625 "/>
<path style=" stroke:none;fill-rule:nonzero;fill:rgb(26.269531%,12.548828%,4.708862%);fill-opacity:1;" d="M 362.570312 77.804688 C 361.867188 79.40625 362.59375 81.277344 364.195312 81.980469 C 365.800781 82.6875 367.671875 81.957031 368.378906 80.351562 C 369.082031 78.75 368.351562 76.878906 366.746094 76.175781 C 365.144531 75.472656 363.269531 76.199219 362.570312 77.804688 "/>
<path style=" stroke:none;fill-rule:nonzero;fill:rgb(26.269531%,12.548828%,4.708862%);fill-opacity:1;" d="M 342.019531 69.640625 C 341.367188 71.136719 339.621094 71.820312 338.125 71.160156 C 336.632812 70.503906 335.945312 68.757812 336.601562 67.265625 C 337.261719 65.765625 339.007812 65.085938 340.503906 65.746094 C 342 66.402344 342.675781 68.144531 342.019531 69.640625 "/>
</g>
</svg>
