<?xml version="1.0" encoding="UTF-8"?>
<svg xmlns="http://www.w3.org/2000/svg" xmlns:xlink="http://www.w3.org/1999/xlink" width="600pt" height="599.999999pt" viewBox="0 0 600 599.999999" version="1.2">
<defs>
<clipPath id="clip1">
  <path d="M 435 462 L 599.835938 462 L 599.835938 574.4375 L 435 574.4375 Z M 435 462 "/>
</clipPath>
<clipPath id="clip2">
  <path d="M 460 437 L 599.835938 437 L 599.835938 543.761719 L 460 543.761719 Z M 460 437 "/>
</clipPath>
<clipPath id="clip3">
  <path d="M 358 200.015625 L 599.835938 200.015625 L 599.835938 473 L 358 473 Z M 358 200.015625 "/>
</clipPath>
</defs>
<g id="surface1">
<g clip-path="url(#clip1)" clip-rule="nonzero">
<path style=" stroke:none;fill-rule:nonzero;fill:rgb(71.759033%,67.059326%,76.078796%);fill-opacity:1;" d="M 435.050781 472.59375 C 446.363281 483.375 490.8125 543.542969 599.847656 574.4375 L 599.835938 528.101562 C 599.835938 528.101562 478.222656 478.042969 460.246094 462.265625 L 435.050781 472.59375 "/>
</g>
<g clip-path="url(#clip2)" clip-rule="nonzero">
<path style=" stroke:none;fill-rule:nonzero;fill:rgb(76.858521%,71.759033%,81.17981%);fill-opacity:1;" d="M 493.449219 437.21875 C 493.449219 437.21875 470.0625 457.707031 460.246094 462.265625 C 460.246094 462.265625 533.558594 516.558594 599.847656 543.65625 L 599.757812 472.59375 C 599.757812 472.59375 533.378906 459.890625 493.449219 437.21875 "/>
</g>
<path style=" stroke:none;fill-rule:nonzero;fill:rgb(98.039246%,96.469116%,92.939758%);fill-opacity:1;" d="M 318.589844 211.09375 L 356.921875 202.753906 C 356.921875 202.753906 370.453125 206.367188 370.855469 241.035156 C 371.242188 275.699219 427.355469 400.175781 500.421875 430.570312 C 500.421875 430.570312 465.152344 466.796875 435.050781 472.59375 C 435.050781 472.59375 384.285156 419.078125 363.636719 384.980469 C 332.527344 333.605469 311.449219 280.761719 306.4375 256.617188 C 298.1875 216.863281 318.589844 211.09375 318.589844 211.09375 "/>
<path style=" stroke:none;fill-rule:nonzero;fill:rgb(60.778809%,67.83905%,85.879517%);fill-opacity:1;" d="M 318.589844 211.09375 C 299.890625 214.785156 281.410156 224.652344 260.425781 242.636719 C 239.453125 260.609375 199.265625 276.332031 184.285156 273.339844 C 169.292969 270.34375 105.613281 204.082031 83.890625 190.023438 L 50.921875 222.054688 C 50.921875 222.054688 101.839844 296.398438 139.332031 332.511719 C 171.511719 363.535156 252.9375 368.46875 312.121094 357.234375 C 312.121094 357.234375 368.59375 448.980469 411.019531 489.820312 C 447.230469 524.652344 460.867188 532.4375 473.523438 539.847656 C 486.191406 547.246094 522 541.59375 522 541.59375 C 485.804688 524.652344 428.902344 470.605469 398.941406 432.027344 C 378.695312 405.972656 317.492188 329.460938 325.253906 290.121094 C 308.699219 254.476562 310.171875 243.398438 310.558594 229.855469 C 310.945312 216.21875 318.589844 211.09375 318.589844 211.09375 "/>
<path style=" stroke:none;fill-rule:nonzero;fill:rgb(97.648621%,67.83905%,66.268921%);fill-opacity:1;" d="M 306.917969 171.261719 L 322 218.738281 C 322 218.738281 331.542969 226.007812 346.113281 220.285156 C 360.292969 214.710938 360.792969 204.03125 360.792969 204.03125 L 339.125 161.179688 L 306.917969 171.261719 "/>
<path style=" stroke:none;fill-rule:nonzero;fill:rgb(87.838745%,50.19989%,48.629761%);fill-opacity:1;" d="M 307.109375 171.871094 C 313.050781 173.664062 328.339844 173.820312 337.058594 164.71875 C 337.058594 164.71875 328.792969 181.941406 310.234375 181.707031 L 307.109375 171.871094 "/>
<g clip-path="url(#clip3)" clip-rule="nonzero">
<path style=" stroke:none;fill-rule:nonzero;fill:rgb(60.778809%,67.83905%,85.879517%);fill-opacity:1;" d="M 358.804688 200.957031 C 358.804688 200.957031 392.253906 199.628906 414.167969 210.863281 C 436.085938 222.09375 457.03125 237.523438 479.5 262.804688 C 501.984375 288.082031 542.78125 336.5 599.847656 333.605469 L 599.757812 472.59375 C 599.757812 472.59375 508.597656 459.207031 454.242188 410.117188 C 413.988281 373.761719 358.625 281.164062 358.625 281.164062 C 358.625 281.164062 361.015625 259.34375 361.890625 233.339844 C 362.164062 225.128906 366.101562 207.117188 358.804688 200.957031 "/>
</g>
<path style=" stroke:none;fill-rule:nonzero;fill:rgb(64.309692%,71.759033%,91.369629%);fill-opacity:1;" d="M 525.515625 340.59375 C 512.1875 330.148438 495.683594 401.339844 495.683594 401.339844 C 495.683594 401.339844 541.425781 426.605469 574.859375 427.304688 C 574.859375 427.304688 592.394531 373.632812 589.582031 364.917969 C 589.582031 364.917969 552.851562 362.050781 525.515625 340.59375 "/>
<path style=" stroke:none;fill-rule:nonzero;fill:rgb(97.648621%,67.83905%,66.268921%);fill-opacity:1;" d="M 77.960938 195.78125 C 68.753906 187.167969 68.753906 178.699219 56.472656 167.894531 C 44.207031 157.085938 26.0625 152.722656 14.671875 151.546875 C 3.265625 150.386719 1.226562 157.382812 17.875 161.191406 C 34.53125 164.988281 31.925781 165.554688 34.558594 166.433594 C 37.191406 167.300781 27.160156 181.089844 31.445312 190.023438 C 35.734375 198.957031 44.695312 203.96875 50.921875 205.75 C 57.15625 207.53125 62.441406 210.863281 62.441406 210.863281 L 77.960938 195.78125 "/>
<path style=" stroke:none;fill-rule:nonzero;fill:rgb(97.648621%,67.83905%,66.268921%);fill-opacity:1;" d="M 283.8125 371.152344 C 282.40625 355.996094 283.117188 343.304688 283.8125 338.71875 C 284.523438 334.136719 293.332031 327.085938 301.09375 324.96875 C 308.855469 322.851562 313.8125 339.132812 313.8125 339.132812 C 315.234375 342.191406 314.058594 345.757812 308.414062 347.964844 C 302.773438 350.171875 305.664062 356.5625 305.664062 356.5625 L 283.8125 371.152344 "/>
<path style=" stroke:none;fill-rule:nonzero;fill:rgb(60.778809%,67.83905%,85.879517%);fill-opacity:1;" d="M 402.441406 279.210938 C 390.523438 300.839844 371.796875 349.914062 356.921875 360.242188 C 342.042969 370.570312 319.933594 360.410156 313.59375 352.84375 C 313.59375 352.84375 314.019531 347.136719 300.578125 352.429688 C 287.132812 357.710938 281.488281 370.765625 281.488281 370.765625 C 281.488281 370.765625 290.863281 396.433594 307.589844 416.339844 C 327.335938 439.839844 346.242188 456.042969 383.574219 442.058594 C 420.921875 428.078125 442.167969 408.945312 482.691406 324.789062 L 402.441406 279.210938 "/>
<path style=" stroke:none;fill-rule:nonzero;fill:rgb(100%,100%,100%);fill-opacity:1;" d="M 383.574219 442.886719 C 383.238281 442.886719 382.929688 442.679688 382.800781 442.34375 C 382.644531 441.917969 382.863281 441.441406 383.292969 441.285156 C 421.4375 427.007812 442.074219 407.199219 481.941406 324.441406 C 482.136719 324.027344 482.625 323.859375 483.039062 324.054688 C 483.453125 324.246094 483.632812 324.738281 483.425781 325.152344 C 443.328125 408.425781 422.484375 428.375 383.871094 442.835938 L 383.574219 442.886719 "/>
<path style=" stroke:none;fill-rule:nonzero;fill:rgb(100%,100%,100%);fill-opacity:1;" d="M 341.925781 365.535156 C 329.492188 365.535156 317.222656 358.460938 312.960938 353.375 L 312.765625 352.78125 C 312.765625 352.765625 312.792969 352.082031 312.082031 351.578125 C 311.152344 350.90625 308.414062 350.238281 300.886719 353.191406 C 300.460938 353.359375 299.96875 353.15625 299.8125 352.730469 C 299.644531 352.300781 299.851562 351.824219 300.277344 351.65625 C 306.644531 349.152344 310.960938 348.6875 313.101562 350.277344 C 314.019531 350.960938 314.34375 351.890625 314.40625 352.523438 C 320.308594 359.25 341.757812 369.757812 356.441406 359.570312 C 366.722656 352.429688 379.378906 325.394531 389.554688 303.667969 C 393.984375 294.203125 398.167969 285.269531 401.71875 278.8125 C 401.9375 278.414062 402.441406 278.269531 402.84375 278.488281 C 403.242188 278.710938 403.386719 279.210938 403.164062 279.613281 C 399.640625 286.015625 395.46875 294.925781 391.050781 304.363281 C 380.257812 327.410156 368.027344 353.542969 357.386719 360.925781 C 352.621094 364.230469 347.261719 365.535156 341.925781 365.535156 "/>
<path style=" stroke:none;fill-rule:nonzero;fill:rgb(38.819885%,29.798889%,38.038635%);fill-opacity:1;" d="M 349.597656 362.785156 C 339.898438 346.738281 331.597656 330.261719 327.4375 315.570312 C 333.945312 330.261719 341.757812 346.207031 350.65625 362.464844 C 350.308594 362.578125 349.945312 362.683594 349.597656 362.785156 "/>
<path style=" stroke:none;fill-rule:nonzero;fill:rgb(38.819885%,29.798889%,38.038635%);fill-opacity:1;" d="M 350.65625 362.464844 C 341.757812 346.207031 333.945312 330.261719 327.4375 315.570312 C 327.023438 314.125 326.648438 312.691406 326.328125 311.285156 L 358.625 306.867188 L 375.8125 331.914062 C 369.1875 344.554688 362.421875 355.425781 356.441406 359.570312 C 356.378906 359.609375 356.300781 359.660156 356.234375 359.714844 C 354.464844 360.902344 352.59375 361.804688 350.65625 362.464844 "/>
<path style=" stroke:none;fill-rule:nonzero;fill:rgb(38.819885%,29.798889%,38.038635%);fill-opacity:1;" d="M 341.886719 363.804688 C 341.253906 363.804688 340.621094 363.792969 339.988281 363.753906 C 328.972656 363.058594 318.308594 356.964844 314.40625 352.523438 C 314.34375 351.890625 314.019531 350.960938 313.101562 350.277344 C 312.882812 350.109375 312.636719 349.964844 312.367188 349.847656 C 311.683594 349.539062 310.792969 349.347656 309.667969 349.347656 C 309.65625 349.347656 309.640625 349.347656 309.617188 349.347656 C 308.597656 349.347656 307.355469 349.488281 305.859375 349.847656 C 306.402344 349.101562 307.214844 348.441406 308.414062 347.964844 C 314.058594 345.757812 315.234375 342.191406 313.8125 339.132812 C 313.8125 339.132812 309.433594 324.789062 302.488281 324.789062 C 302.035156 324.789062 301.570312 324.839844 301.09375 324.96875 C 297.515625 325.949219 293.707031 327.976562 290.566406 330.339844 L 281.488281 317.390625 L 326.328125 311.285156 C 326.648438 312.691406 327.023438 314.125 327.4375 315.570312 C 331.597656 330.261719 339.898438 346.738281 349.597656 362.785156 C 347.132812 363.496094 344.5625 363.804688 341.980469 363.804688 C 341.953125 363.804688 341.925781 363.804688 341.886719 363.804688 "/>
<path style=" stroke:none;fill-rule:nonzero;fill:rgb(38.819885%,29.798889%,38.038635%);fill-opacity:1;" d="M 304.503906 350.199219 L 290.566406 330.339844 C 293.707031 327.976562 297.515625 325.949219 301.09375 324.96875 C 301.570312 324.839844 302.035156 324.789062 302.488281 324.789062 C 309.433594 324.789062 313.8125 339.132812 313.8125 339.132812 C 315.234375 342.191406 314.058594 345.757812 308.414062 347.964844 C 307.214844 348.441406 306.402344 349.101562 305.859375 349.847656 C 305.433594 349.941406 304.980469 350.054688 304.503906 350.199219 "/>
<path style=" stroke:none;fill-rule:nonzero;fill:rgb(38.819885%,29.798889%,38.038635%);fill-opacity:1;" d="M 339.988281 363.753906 C 329.179688 363.109375 318.460938 357.207031 314.40625 352.507812 C 314.355469 352.097656 314.1875 351.4375 313.671875 350.804688 C 313.347656 350.429688 312.921875 350.109375 312.367188 349.847656 C 312.636719 349.964844 312.882812 350.109375 313.101562 350.277344 C 314.019531 350.960938 314.34375 351.890625 314.40625 352.523438 C 318.308594 356.964844 328.972656 363.058594 339.988281 363.753906 M 356.234375 359.714844 C 356.300781 359.660156 356.378906 359.609375 356.441406 359.570312 C 362.421875 355.425781 369.1875 344.554688 375.8125 331.914062 L 375.828125 331.929688 C 373.191406 336.964844 370.542969 341.703125 367.9375 345.820312 C 363.933594 352.171875 359.992188 357.117188 356.441406 359.570312 C 356.378906 359.609375 356.3125 359.660156 356.234375 359.714844 "/>
<path style=" stroke:none;fill-rule:nonzero;fill:rgb(60.778809%,67.83905%,85.879517%);fill-opacity:1;" d="M 321.949219 375.050781 L 305.523438 351.644531 C 307.292969 351.179688 308.632812 351 309.628906 351 C 310.945312 351 311.683594 351.296875 312.082031 351.578125 C 312.09375 351.59375 312.109375 351.59375 312.109375 351.605469 C 312.238281 351.695312 312.328125 351.785156 312.40625 351.875 C 312.742188 352.265625 312.765625 352.714844 312.765625 352.84375 L 312.765625 353.140625 L 312.960938 353.375 C 315.195312 356.007812 319.132812 358.886719 323.988281 361.171875 C 329.21875 363.675781 335.558594 365.535156 341.925781 365.535156 C 343 365.535156 344.082031 365.484375 345.144531 365.367188 L 321.949219 375.050781 "/>
<path style=" stroke:none;fill-rule:nonzero;fill:rgb(99.609375%,99.609375%,99.609375%);fill-opacity:1;" d="M 341.925781 365.535156 C 335.558594 365.535156 329.21875 363.675781 323.988281 361.171875 C 329.257812 363.664062 335.597656 365.445312 341.980469 365.457031 C 341.980469 365.457031 341.992188 365.457031 342.003906 365.457031 C 343.117188 365.457031 344.238281 365.394531 345.363281 365.277344 L 345.144531 365.367188 C 344.082031 365.484375 343 365.535156 341.925781 365.535156 M 305.523438 351.644531 L 305.507812 351.632812 C 307.265625 351.167969 308.609375 351 309.617188 351 C 310.972656 351 311.695312 351.296875 312.109375 351.605469 C 312.109375 351.59375 312.09375 351.59375 312.082031 351.578125 C 311.683594 351.296875 310.945312 351 309.628906 351 C 308.632812 351 307.292969 351.179688 305.523438 351.644531 "/>
<path style=" stroke:none;fill-rule:nonzero;fill:rgb(60.778809%,67.83905%,85.879517%);fill-opacity:1;" d="M 359.191406 359.507812 C 364.851562 354.574219 370.894531 344.867188 376.886719 333.476562 L 386.828125 347.964844 L 359.191406 359.507812 "/>
<path style=" stroke:none;fill-rule:nonzero;fill:rgb(99.609375%,99.609375%,99.609375%);fill-opacity:1;" d="M 359.179688 359.507812 C 364.914062 354.511719 370.917969 344.789062 376.871094 333.464844 L 376.886719 333.476562 C 370.894531 344.867188 364.851562 354.574219 359.191406 359.507812 L 359.179688 359.507812 "/>
<path style=" stroke:none;fill-rule:nonzero;fill:rgb(100%,100%,100%);fill-opacity:1;" d="M 349.609375 362.800781 C 349.597656 362.785156 349.597656 362.800781 349.597656 362.785156 C 349.945312 362.683594 350.308594 362.578125 350.65625 362.464844 C 350.65625 362.464844 350.65625 362.464844 350.671875 362.464844 C 350.308594 362.59375 349.960938 362.695312 349.609375 362.800781 "/>
<path style=" stroke:none;fill-rule:nonzero;fill:rgb(97.648621%,96.078491%,92.549133%);fill-opacity:1;" d="M 350.671875 362.464844 C 350.65625 362.464844 350.65625 362.464844 350.65625 362.464844 C 352.59375 361.804688 354.464844 360.902344 356.234375 359.714844 C 354.464844 360.914062 352.59375 361.816406 350.671875 362.464844 "/>
<path style=" stroke:none;fill-rule:nonzero;fill:rgb(60.778809%,67.83905%,85.879517%);fill-opacity:1;" d="M 342.042969 363.820312 C 341.359375 363.820312 340.675781 363.792969 339.988281 363.753906 C 340.621094 363.792969 341.253906 363.804688 341.886719 363.804688 C 341.925781 363.804688 341.953125 363.804688 341.980469 363.804688 C 344.5625 363.804688 347.132812 363.496094 349.597656 362.785156 C 349.597656 362.800781 349.597656 362.785156 349.609375 362.800781 C 347.144531 363.507812 344.585938 363.820312 342.042969 363.820312 M 305.859375 349.863281 C 305.859375 349.847656 305.859375 349.847656 305.859375 349.847656 C 307.355469 349.488281 308.597656 349.347656 309.617188 349.347656 C 309.640625 349.347656 309.65625 349.347656 309.667969 349.347656 C 310.792969 349.347656 311.683594 349.539062 312.367188 349.847656 C 311.628906 349.527344 310.726562 349.359375 309.640625 349.359375 C 308.558594 349.359375 307.292969 349.527344 305.859375 349.863281 "/>
<path style=" stroke:none;fill-rule:nonzero;fill:rgb(97.24884%,67.83905%,66.268921%);fill-opacity:1;" d="M 304.515625 350.199219 L 304.503906 350.199219 C 304.980469 350.054688 305.433594 349.941406 305.859375 349.847656 C 305.859375 349.847656 305.859375 349.847656 305.859375 349.863281 C 305.417969 349.953125 304.980469 350.070312 304.515625 350.199219 "/>
<path style=" stroke:none;fill-rule:nonzero;fill:rgb(60.778809%,67.83905%,85.879517%);fill-opacity:1;" d="M 323.988281 361.171875 C 319.132812 358.886719 315.195312 356.007812 312.960938 353.375 L 312.765625 353.140625 L 312.765625 352.84375 C 312.765625 352.714844 312.742188 352.265625 312.40625 351.875 C 312.328125 351.785156 312.238281 351.695312 312.109375 351.605469 C 312.792969 352.097656 312.765625 352.765625 312.765625 352.78125 L 312.960938 353.375 C 315.039062 355.851562 319.015625 358.796875 323.988281 361.171875 "/>
<path style=" stroke:none;fill-rule:nonzero;fill:rgb(99.609375%,99.609375%,99.609375%);fill-opacity:1;" d="M 342.003906 365.457031 C 341.992188 365.457031 341.980469 365.457031 341.980469 365.457031 C 335.597656 365.445312 329.257812 363.664062 323.988281 361.171875 C 319.015625 358.796875 315.039062 355.851562 312.960938 353.375 L 312.765625 352.78125 C 312.765625 352.765625 312.792969 352.097656 312.109375 351.605469 C 311.695312 351.296875 310.972656 351 309.617188 351 C 308.609375 351 307.265625 351.167969 305.507812 351.632812 L 304.515625 350.199219 C 304.980469 350.070312 305.417969 349.953125 305.859375 349.863281 C 307.292969 349.527344 308.558594 349.359375 309.640625 349.359375 C 310.726562 349.359375 311.628906 349.527344 312.367188 349.847656 C 312.921875 350.109375 313.347656 350.429688 313.671875 350.804688 C 314.1875 351.4375 314.355469 352.097656 314.40625 352.507812 C 318.460938 357.207031 329.179688 363.109375 339.988281 363.753906 C 340.675781 363.792969 341.359375 363.820312 342.042969 363.820312 C 344.585938 363.820312 347.144531 363.507812 349.609375 362.800781 C 349.960938 362.695312 350.308594 362.59375 350.671875 362.464844 C 352.59375 361.816406 354.464844 360.914062 356.234375 359.714844 C 356.3125 359.660156 356.378906 359.609375 356.441406 359.570312 C 359.992188 357.117188 363.933594 352.171875 367.9375 345.820312 C 370.542969 341.703125 373.191406 336.964844 375.828125 331.929688 L 376.871094 333.464844 C 370.917969 344.789062 364.914062 354.511719 359.179688 359.507812 L 345.363281 365.277344 C 344.238281 365.394531 343.117188 365.457031 342.003906 365.457031 "/>
<path style=" stroke:none;fill-rule:nonzero;fill:rgb(100%,100%,100%);fill-opacity:1;" d="M 359.464844 280.957031 L 361.582031 284.414062 C 362.226562 282.855469 362.847656 281.277344 363.480469 279.675781 C 365.546875 274.472656 367.679688 269.078125 370.828125 263.460938 C 371.941406 261.484375 373 259.691406 373.96875 258.050781 C 377.621094 251.800781 380.050781 247.683594 379.105469 244.378906 C 378.421875 242.003906 375.96875 239.835938 371.164062 237.328125 C 370.789062 237.136719 370.621094 236.671875 370.789062 236.269531 L 371.292969 235.070312 C 374.84375 226.675781 376.835938 221.9375 385.785156 218.75 C 380.527344 203.632812 371.4375 201.902344 360.109375 201.796875 C 360.640625 202.894531 361.425781 204.585938 362.085938 206.136719 C 364.242188 211.132812 363.789062 217.238281 363.234375 224.949219 C 363.027344 227.621094 362.835938 230.371094 362.71875 233.378906 C 362.265625 244.46875 359.722656 277.636719 359.464844 280.957031 Z M 361.710938 287.050781 L 361.015625 286.648438 L 357.914062 281.589844 L 357.796875 281.097656 C 357.824219 280.738281 360.601562 244.894531 361.066406 233.3125 C 361.183594 230.28125 361.390625 227.503906 361.582031 224.832031 C 362.125 217.34375 362.5625 211.417969 360.574219 206.792969 C 359.476562 204.25 358.070312 201.359375 358.058594 201.332031 L 358.09375 200.53125 L 358.804688 200.132812 C 371.164062 200.132812 381.871094 201.566406 387.617188 218.996094 C 387.757812 219.433594 387.515625 219.898438 387.085938 220.042969 C 378.175781 222.996094 376.5 226.988281 372.816406 235.714844 L 372.609375 236.21875 C 377.414062 238.8125 379.90625 241.203125 380.695312 243.914062 C 381.832031 247.902344 379.261719 252.28125 375.386719 258.890625 C 374.417969 260.53125 373.375 262.3125 372.273438 264.273438 C 369.175781 269.800781 367.058594 275.132812 365.019531 280.285156 C 364.179688 282.402344 363.351562 284.480469 362.472656 286.546875 C 362.355469 286.832031 362.085938 287.023438 361.777344 287.050781 L 361.710938 287.050781 "/>
<path style=" stroke:none;fill-rule:nonzero;fill:rgb(100%,100%,100%);fill-opacity:1;" d="M 288.65625 236.527344 C 294.042969 239.253906 299.503906 242.183594 302.488281 248.457031 C 302.65625 248.820312 302.539062 249.257812 302.203125 249.492188 C 297.746094 252.5625 295.578125 255.015625 295.203125 257.457031 C 294.675781 260.851562 297.582031 264.648438 301.984375 270.394531 C 303.160156 271.917969 304.425781 273.570312 305.753906 275.378906 C 307.964844 278.386719 310.996094 281.832031 314.199219 285.488281 C 317.675781 289.4375 321.25 293.503906 323.71875 296.992188 L 323.421875 290.046875 C 322.582031 287.554688 311.980469 255.832031 310.121094 244.519531 C 308.285156 233.46875 309.953125 218.789062 316.5625 213.019531 L 316.707031 211.558594 C 310.003906 212.589844 292.816406 217.136719 288.65625 236.527344 Z M 324.675781 300.800781 L 323.964844 300.386719 C 321.742188 296.566406 317.273438 291.492188 312.960938 286.570312 C 309.730469 282.890625 306.671875 279.417969 304.425781 276.359375 C 303.09375 274.550781 301.828125 272.914062 300.679688 271.402344 C 296.003906 265.320312 292.917969 261.304688 293.5625 257.199219 C 294.015625 254.398438 296.210938 251.710938 300.679688 248.535156 C 297.761719 242.984375 292.464844 240.3125 287.351562 237.714844 C 287.015625 237.5625 286.835938 237.1875 286.914062 236.824219 C 291.265625 214.710938 311.449219 210.527344 317.53125 209.765625 L 318.21875 209.996094 L 318.460938 210.679688 L 318.179688 213.519531 L 317.867188 214.078125 C 311.515625 219.28125 309.976562 233.519531 311.746094 244.25 C 313.632812 255.648438 324.90625 289.296875 325.023438 289.632812 L 325.074219 289.863281 L 325.5 299.933594 C 325.511719 300.308594 325.28125 300.65625 324.90625 300.761719 L 324.675781 300.800781 "/>
<path style=" stroke:none;fill-rule:nonzero;fill:rgb(97.648621%,67.83905%,66.268921%);fill-opacity:1;" d="M 311.890625 109.652344 C 302.269531 120.367188 294.738281 133.421875 293.320312 145.15625 C 291.496094 160.03125 296.675781 169.015625 306.917969 171.882812 C 317.15625 174.75 330.523438 171.574219 341.101562 161.179688 C 351.675781 150.785156 354.453125 131.148438 352.167969 118.894531 C 348.695312 100.265625 324.933594 95.152344 311.890625 109.652344 "/>
<path style=" stroke:none;fill-rule:nonzero;fill:rgb(59.999084%,19.999695%,36.468506%);fill-opacity:1;" d="M 318.332031 104.5 C 332.023438 74.121094 365.507812 68.011719 397.355469 68.011719 C 412.878906 68.011719 427.199219 71.578125 442.152344 65.871094 C 458.140625 59.777344 462.957031 56.1875 474.414062 44.347656 C 486.113281 32.261719 496.636719 25.546875 510.984375 38.394531 C 528.832031 54.390625 546.992188 75.539062 541.929688 101.273438 C 538.726562 117.566406 523.410156 131.847656 510.003906 138.042969 C 490.828125 146.925781 478.15625 148.734375 459.175781 149.871094 C 436.753906 151.210938 409.289062 144.242188 388.328125 154.441406 C 375.8125 160.519531 356.234375 176.15625 341.578125 168.527344 C 333.480469 164.304688 339.707031 157.125 343.582031 150.851562 C 352.167969 136.996094 351.289062 118.894531 340.363281 108.683594 C 335.378906 104.035156 319.585938 103.636719 318.332031 104.5 "/>
<path style=" stroke:none;fill-rule:nonzero;fill:rgb(30.589294%,27.059937%,22.749329%);fill-opacity:1;" d="M 333.417969 137.773438 C 333.171875 138.378906 332.640625 137.875 332.730469 137.269531 C 333.003906 135.253906 332.667969 132.851562 330.9375 131.175781 C 328.664062 128.953125 325.746094 131.535156 324.171875 133.019531 L 323.757812 132.773438 C 325.203125 130.503906 327.929688 127.558594 331.222656 129.726562 C 333.753906 131.382812 334.398438 135.359375 333.417969 137.773438 "/>
<path style=" stroke:none;fill-rule:nonzero;fill:rgb(30.589294%,27.059937%,22.749329%);fill-opacity:1;" d="M 310.25 127.882812 L 309.914062 127.882812 C 309.578125 125.804688 309.320312 120.109375 306.117188 121.386719 C 304.242188 122.125 303.570312 123.519531 302.382812 124.691406 L 301.917969 124.421875 C 301.90625 123.480469 302.125 123.363281 303.003906 122.214844 C 304 120.910156 305.339844 119.761719 307.058594 119.851562 C 310.921875 120.070312 310.714844 125.15625 310.25 127.882812 "/>
<path style=" stroke:none;fill-rule:nonzero;fill:rgb(30.589294%,27.059937%,22.749329%);fill-opacity:1;" d="M 317.121094 125.054688 L 316.667969 124.691406 C 313.621094 127.480469 311.179688 131.109375 308.765625 134.441406 C 307.511719 136.171875 304.230469 139.167969 303.84375 141.398438 C 303.390625 144.046875 308.609375 146.191406 310.46875 144.707031 L 310.480469 144.074219 C 309.679688 143.207031 308.273438 143.425781 307.199219 143.144531 C 303.703125 142.253906 306.269531 140.003906 307.589844 138.25 C 310.777344 133.988281 314.265625 129.523438 317.121094 125.054688 "/>
<path style=" stroke:none;fill-rule:nonzero;fill:rgb(30.589294%,27.059937%,22.749329%);fill-opacity:1;" d="M 298.433594 144.949219 C 299.59375 149.910156 305.792969 154.105469 311.761719 151.84375 L 311.796875 152.089844 C 306.492188 155.679688 299.246094 151.535156 297.890625 145.171875 L 298.433594 144.949219 "/>
<path style=" stroke:none;fill-rule:nonzero;fill:rgb(97.648621%,67.83905%,66.268921%);fill-opacity:1;" d="M 344.382812 143.582031 C 348.550781 141.566406 354.464844 145.46875 354.765625 151.109375 C 355.007812 155.910156 351.714844 161.8125 346.421875 162.265625 C 338.105469 162.949219 337.058594 157.527344 337.058594 157.527344 L 344.382812 143.582031 "/>
<path style=" stroke:none;fill-rule:nonzero;fill:rgb(36.468506%,65.489197%,58.039856%);fill-opacity:1;" d="M 296.519531 133.511719 C 296.519531 133.511719 287.960938 146.410156 292.246094 158.351562 C 296.546875 170.296875 308.390625 175.925781 322.621094 171.84375 L 334.410156 149.121094 C 334.410156 149.121094 310.855469 131.714844 296.519531 133.511719 "/>
<path style=" stroke:none;fill-rule:nonzero;fill:rgb(100%,100%,100%);fill-opacity:1;" d="M 328.960938 152.128906 L 328.613281 151.378906 L 347.078125 142.742188 L 347.429688 143.492188 L 328.960938 152.128906 "/>
</g>
</svg>
